<svg width="158" height="158" viewBox="0 0 15 15" fill="none" xmlns="http://www.w3.org/2000/svg"><path d="M 10 2.7 C 10.1 2.4 9.9 2.1 9.7 2 C 9.4 1.9 9.1 2.1 9 2.3 L 5 12.3 C 4.9 12.6 5.1 12.9 5.3 13 C 5.6 13.1 5.9 12.9 6 12.7 L 10 2.7 Z M 3.9 5.1 C 4 5.3 4 5.7 3.9 5.9 L 2.2 7.5 L 3.9 9.1 C 4 9.3 4 9.7 3.9 9.9 C 3.7 10 3.3 10 3.1 9.9 L 1.1 7.9 C 1 7.7 1 7.3 1.1 7.1 L 3.1 5.1 C 3.3 5 3.7 5 3.9 5.1 Z M 11.1 5.1 C 11.3 5 11.7 5 11.9 5.1 L 13.9 7.1 C 14 7.3 14 7.7 13.9 7.9 L 11.9 9.9 C 11.7 10 11.3 10 11.1 9.9 C 11 9.7 11 9.3 11.1 9.1 L 12.8 7.5 L 11.1 5.9 C 11 5.7 11 5.3 11.1 5.1 Z" fill="currentColor" fill-rule="evenodd" clip-rule="evenodd"></path></svg>